; Drill file
; Format: 2.4 (00.0000)
M48
INCH
T01C0.0236
T02C0.0394
T03C0.0787
%
G05
G90
T01
X010750Y028500
X011750Y028500
X012750Y028500
X015500Y024250
X016500Y023250
X018750Y022500
X019750Y022500
X020750Y022500
X020750Y025500
X019750Y025500
X018750Y025500
X021750Y025500
T02
X002750Y023750
X004250Y024750
X003750Y026000
X003750Y027250
X006250Y024750
X007500Y024750
X009500Y024750
X010750Y024750
X012750Y024750
X014500Y023250
X012750Y022250
X010750Y022250
X009500Y022250
X007500Y022250
X006250Y022250
X004250Y022250
X005250Y031000
X007250Y031000
X011000Y030000
X012000Y030000
X013000Y030000
X012500Y031500
X011500Y031500
X011000Y033000
X012000Y033000
X013000Y033000
X008750Y037000
X007750Y037000
X006750Y037000
X005750Y037000
X004750Y037000
X003750Y037000
X002250Y032500
X002250Y031500
X017750Y037000
X018750Y037000
X019750Y037000
X020750Y037000
X023750Y032500
X023750Y031500
X023250Y023750
X021750Y022500
T03
X002250Y029750
X002250Y034250
X008500Y034250
X008500Y029750
X017500Y029750
X017500Y034250
X023750Y034250
X023750Y029750
M30
