%FSLAX34Y34*%
%MOMM*%
%LNSILK_TOP*%
G71*
G01*
%ADD10C, 4.80*%
%ADD11C, 2.80*%
%ADD12C, 2.80*%
%ADD13C, 2.40*%
%ADD14C, 1.30*%
%ADD15R, 2.10X2.40*%
%ADD16C, 1.33*%
%ADD17C, 0.67*%
%ADD18C, 4.00*%
%ADD19C, 2.00*%
%ADD20C, 1.80*%
%ADD21C, 1.60*%
%ADD22C, 2.00*%
%ADD23C, 0.50*%
%ADD24R, 1.30X1.60*%
%LPD*%
G36*
X0Y1000000D02*
X660000Y1000000D01*
X660000Y500000D01*
X0Y500000D01*
X0Y1000000D01*
G37*
%LPC*%
X444500Y869950D02*
G54D10*
D03*
X603250Y869950D02*
G54D10*
D03*
X444500Y755650D02*
G54D10*
D03*
X603250Y755650D02*
G54D10*
D03*
X215900Y869950D02*
G54D10*
D03*
X57150Y869950D02*
G54D10*
D03*
X215900Y755650D02*
G54D10*
D03*
X57150Y755650D02*
G54D10*
D03*
G36*
X50850Y637250D02*
X88850Y637250D01*
X88850Y569250D01*
X50850Y569250D01*
X50850Y637250D01*
G37*
G36*
X571550Y637250D02*
X609550Y637250D01*
X609550Y569250D01*
X571550Y569250D01*
X571550Y637250D01*
G37*
X450850Y939800D02*
G54D11*
D03*
X476250Y939800D02*
G54D11*
D03*
X501650Y939800D02*
G54D11*
D03*
X527050Y939800D02*
G54D11*
D03*
X95250Y939800D02*
G54D11*
D03*
X120650Y939800D02*
G54D11*
D03*
X146050Y939800D02*
G54D11*
D03*
X171450Y939800D02*
G54D11*
D03*
X196850Y939800D02*
G54D11*
D03*
X222250Y939800D02*
G54D11*
D03*
X133350Y787400D02*
G54D11*
D03*
X184150Y787400D02*
G54D11*
D03*
X393700Y615950D02*
G54D12*
D03*
X368300Y590550D02*
G54D12*
D03*
X419100Y590550D02*
G54D12*
D03*
X273050Y628650D02*
G54D11*
D03*
X323850Y628650D02*
G54D11*
D03*
X273050Y565150D02*
G54D11*
D03*
X323850Y565150D02*
G54D11*
D03*
X323850Y723900D02*
G54D13*
D03*
X298450Y723900D02*
G54D13*
D03*
X273050Y723900D02*
G54D13*
D03*
X476250Y571500D02*
G54D13*
D03*
X501650Y571500D02*
G54D13*
D03*
X527050Y571500D02*
G54D13*
D03*
X552450Y571500D02*
G54D13*
D03*
X476250Y647700D02*
G54D13*
D03*
X501650Y647700D02*
G54D13*
D03*
X527050Y647700D02*
G54D13*
D03*
X552450Y647700D02*
G54D13*
D03*
X57150Y755650D02*
G54D10*
D03*
X215900Y755650D02*
G54D10*
D03*
X444500Y755650D02*
G54D10*
D03*
X603250Y755650D02*
G54D10*
D03*
X552455Y571500D02*
G54D11*
D03*
X450850Y939800D02*
G54D11*
D03*
X196850Y939800D02*
G54D11*
D03*
X368300Y590550D02*
G54D11*
D03*
X323850Y723900D02*
G54D12*
D03*
X273050Y628650D02*
G54D11*
D03*
X273050Y565150D02*
G54D11*
D03*
G54D14*
X273050Y723900D02*
X298450Y723900D01*
X190500Y628650D02*
G54D11*
D03*
X241300Y628650D02*
G54D11*
D03*
X190500Y565150D02*
G54D11*
D03*
X241300Y565150D02*
G54D11*
D03*
X190500Y628650D02*
G54D11*
D03*
X190500Y565150D02*
G54D11*
D03*
X107950Y628650D02*
G54D11*
D03*
X158750Y628650D02*
G54D11*
D03*
X107950Y565150D02*
G54D11*
D03*
X158750Y565150D02*
G54D11*
D03*
X107950Y628650D02*
G54D11*
D03*
X107950Y565150D02*
G54D11*
D03*
X330200Y838200D02*
G54D11*
D03*
X304800Y838200D02*
G54D11*
D03*
X279400Y838200D02*
G54D11*
D03*
X330200Y762000D02*
G54D11*
D03*
X304800Y762000D02*
G54D11*
D03*
X279400Y762000D02*
G54D11*
D03*
X304800Y838200D02*
G54D11*
D03*
X95250Y692150D02*
G54D11*
D03*
X95250Y660400D02*
G54D11*
D03*
X57150Y825500D02*
G54D11*
D03*
X57150Y800095D02*
G54D11*
D03*
X603250Y825500D02*
G54D11*
D03*
X603250Y800095D02*
G54D11*
D03*
G54D14*
X444500Y869950D02*
X603250Y869950D01*
G54D14*
X279400Y838200D02*
X279400Y914400D01*
X292100Y800100D02*
G54D11*
D03*
X317500Y800100D02*
G54D11*
D03*
G54D14*
X279400Y838200D02*
X279400Y812800D01*
X292100Y800100D01*
X285750Y869950D02*
G54D15*
D03*
X304750Y869950D02*
G54D15*
D03*
G54D14*
X304800Y838200D02*
X304800Y869900D01*
X304750Y869950D01*
G54D14*
X171450Y939800D02*
X171450Y952500D01*
X184150Y965200D01*
X488950Y965200D01*
X501650Y952500D01*
X501650Y939800D01*
G54D14*
X476250Y939800D02*
X476250Y927100D01*
X463550Y914400D01*
X234950Y914400D01*
X222250Y927100D01*
X222250Y939800D01*
G54D14*
X330200Y838200D02*
X368300Y800100D01*
X368300Y692150D01*
G54D14*
X95250Y692150D02*
X558800Y692150D01*
X590550Y660400D01*
X590550Y603250D01*
G54D14*
X527050Y647700D02*
X527050Y654050D01*
X508000Y673100D01*
X342900Y673100D01*
X323850Y654050D01*
X323850Y628650D01*
G54D14*
X393700Y615950D02*
X476250Y615950D01*
X501650Y590550D01*
X501650Y571500D01*
G54D14*
X476250Y571500D02*
X476250Y546100D01*
X463550Y533400D01*
X171450Y533400D01*
X158750Y546100D01*
X158750Y565150D01*
G54D14*
X69850Y603250D02*
X69850Y698500D01*
X95250Y723900D01*
X273050Y723900D01*
%LPD*%
G54D16*
G36*
X50483Y755650D02*
X50483Y780150D01*
X63817Y780150D01*
X63817Y755650D01*
X50483Y755650D01*
G37*
G36*
X57150Y762317D02*
X81650Y762317D01*
X81650Y748983D01*
X57150Y748983D01*
X57150Y762317D01*
G37*
G36*
X63817Y755650D02*
X63817Y731150D01*
X50483Y731150D01*
X50483Y755650D01*
X63817Y755650D01*
G37*
G36*
X57150Y748983D02*
X32650Y748983D01*
X32650Y762317D01*
X57150Y762317D01*
X57150Y748983D01*
G37*
G54D16*
G36*
X209233Y755650D02*
X209233Y780150D01*
X222567Y780150D01*
X222567Y755650D01*
X209233Y755650D01*
G37*
G36*
X215900Y762317D02*
X240400Y762317D01*
X240400Y748983D01*
X215900Y748983D01*
X215900Y762317D01*
G37*
G36*
X222567Y755650D02*
X222567Y731150D01*
X209233Y731150D01*
X209233Y755650D01*
X222567Y755650D01*
G37*
G36*
X215900Y748983D02*
X191400Y748983D01*
X191400Y762317D01*
X215900Y762317D01*
X215900Y748983D01*
G37*
G54D16*
G36*
X437833Y755650D02*
X437833Y780150D01*
X451167Y780150D01*
X451167Y755650D01*
X437833Y755650D01*
G37*
G36*
X444500Y762317D02*
X469000Y762317D01*
X469000Y748983D01*
X444500Y748983D01*
X444500Y762317D01*
G37*
G36*
X451167Y755650D02*
X451167Y731150D01*
X437833Y731150D01*
X437833Y755650D01*
X451167Y755650D01*
G37*
G36*
X444500Y748983D02*
X420000Y748983D01*
X420000Y762317D01*
X444500Y762317D01*
X444500Y748983D01*
G37*
G54D16*
G36*
X596583Y755650D02*
X596583Y780150D01*
X609917Y780150D01*
X609917Y755650D01*
X596583Y755650D01*
G37*
G36*
X603250Y762317D02*
X627750Y762317D01*
X627750Y748983D01*
X603250Y748983D01*
X603250Y762317D01*
G37*
G36*
X609917Y755650D02*
X609917Y731150D01*
X596583Y731150D01*
X596583Y755650D01*
X609917Y755650D01*
G37*
G36*
X603250Y748983D02*
X578750Y748983D01*
X578750Y762317D01*
X603250Y762317D01*
X603250Y748983D01*
G37*
G54D17*
G36*
X549122Y571500D02*
X549122Y586000D01*
X555788Y586000D01*
X555788Y571500D01*
X549122Y571500D01*
G37*
G36*
X555788Y571500D02*
X555788Y557000D01*
X549122Y557000D01*
X549122Y571500D01*
X555788Y571500D01*
G37*
G54D17*
G36*
X447517Y939800D02*
X447517Y954300D01*
X454183Y954300D01*
X454183Y939800D01*
X447517Y939800D01*
G37*
G36*
X454183Y939800D02*
X454183Y925300D01*
X447517Y925300D01*
X447517Y939800D01*
X454183Y939800D01*
G37*
G36*
X450850Y936467D02*
X436350Y936467D01*
X436350Y943133D01*
X450850Y943133D01*
X450850Y936467D01*
G37*
G54D17*
G36*
X193517Y939800D02*
X193517Y954300D01*
X200183Y954300D01*
X200183Y939800D01*
X193517Y939800D01*
G37*
G36*
X200183Y939800D02*
X200183Y925300D01*
X193517Y925300D01*
X193517Y939800D01*
X200183Y939800D01*
G37*
G54D17*
G36*
X364967Y590550D02*
X364967Y605050D01*
X371633Y605050D01*
X371633Y590550D01*
X364967Y590550D01*
G37*
G36*
X368300Y593883D02*
X382800Y593883D01*
X382800Y587217D01*
X368300Y587217D01*
X368300Y593883D01*
G37*
G36*
X371633Y590550D02*
X371633Y576050D01*
X364967Y576050D01*
X364967Y590550D01*
X371633Y590550D01*
G37*
G36*
X368300Y587217D02*
X353800Y587217D01*
X353800Y593883D01*
X368300Y593883D01*
X368300Y587217D01*
G37*
G54D17*
G36*
X327183Y723900D02*
X327183Y709400D01*
X320517Y709400D01*
X320517Y723900D01*
X327183Y723900D01*
G37*
G36*
X320517Y723900D02*
X320517Y738400D01*
X327183Y738400D01*
X327183Y723900D01*
X320517Y723900D01*
G37*
G36*
X323850Y727233D02*
X338350Y727233D01*
X338350Y720567D01*
X323850Y720567D01*
X323850Y727233D01*
G37*
G54D17*
G36*
X269717Y628650D02*
X269717Y643150D01*
X276383Y643150D01*
X276383Y628650D01*
X269717Y628650D01*
G37*
G36*
X273050Y631983D02*
X287550Y631983D01*
X287550Y625317D01*
X273050Y625317D01*
X273050Y631983D01*
G37*
G36*
X276383Y628650D02*
X276383Y614150D01*
X269717Y614150D01*
X269717Y628650D01*
X276383Y628650D01*
G37*
G36*
X273050Y625317D02*
X258550Y625317D01*
X258550Y631983D01*
X273050Y631983D01*
X273050Y625317D01*
G37*
G54D17*
G36*
X269717Y565150D02*
X269717Y579650D01*
X276383Y579650D01*
X276383Y565150D01*
X269717Y565150D01*
G37*
G36*
X273050Y568483D02*
X287550Y568483D01*
X287550Y561817D01*
X273050Y561817D01*
X273050Y568483D01*
G37*
G36*
X276383Y565150D02*
X276383Y550650D01*
X269717Y550650D01*
X269717Y565150D01*
X276383Y565150D01*
G37*
G36*
X273050Y561817D02*
X258550Y561817D01*
X258550Y568483D01*
X273050Y568483D01*
X273050Y561817D01*
G37*
G54D17*
G36*
X187167Y628650D02*
X187167Y643150D01*
X193833Y643150D01*
X193833Y628650D01*
X187167Y628650D01*
G37*
G36*
X190500Y631983D02*
X205000Y631983D01*
X205000Y625317D01*
X190500Y625317D01*
X190500Y631983D01*
G37*
G36*
X193833Y628650D02*
X193833Y614150D01*
X187167Y614150D01*
X187167Y628650D01*
X193833Y628650D01*
G37*
G36*
X190500Y625317D02*
X176000Y625317D01*
X176000Y631983D01*
X190500Y631983D01*
X190500Y625317D01*
G37*
G54D17*
G36*
X187167Y565150D02*
X187167Y579650D01*
X193833Y579650D01*
X193833Y565150D01*
X187167Y565150D01*
G37*
G36*
X190500Y568483D02*
X205000Y568483D01*
X205000Y561817D01*
X190500Y561817D01*
X190500Y568483D01*
G37*
G36*
X193833Y565150D02*
X193833Y550650D01*
X187167Y550650D01*
X187167Y565150D01*
X193833Y565150D01*
G37*
G36*
X190500Y561817D02*
X176000Y561817D01*
X176000Y568483D01*
X190500Y568483D01*
X190500Y561817D01*
G37*
G54D17*
G36*
X104617Y628650D02*
X104617Y643150D01*
X111283Y643150D01*
X111283Y628650D01*
X104617Y628650D01*
G37*
G36*
X107950Y631983D02*
X122450Y631983D01*
X122450Y625317D01*
X107950Y625317D01*
X107950Y631983D01*
G37*
G36*
X111283Y628650D02*
X111283Y614150D01*
X104617Y614150D01*
X104617Y628650D01*
X111283Y628650D01*
G37*
G36*
X107950Y625317D02*
X93450Y625317D01*
X93450Y631983D01*
X107950Y631983D01*
X107950Y625317D01*
G37*
G54D17*
G36*
X104617Y565150D02*
X104617Y579650D01*
X111283Y579650D01*
X111283Y565150D01*
X104617Y565150D01*
G37*
G36*
X107950Y568483D02*
X122450Y568483D01*
X122450Y561817D01*
X107950Y561817D01*
X107950Y568483D01*
G37*
G36*
X111283Y565150D02*
X111283Y550650D01*
X104617Y550650D01*
X104617Y565150D01*
X111283Y565150D01*
G37*
G36*
X107950Y561817D02*
X93450Y561817D01*
X93450Y568483D01*
X107950Y568483D01*
X107950Y561817D01*
G37*
G54D17*
G36*
X308133Y838200D02*
X308133Y823700D01*
X301467Y823700D01*
X301467Y838200D01*
X308133Y838200D01*
G37*
G36*
X301467Y838200D02*
X301467Y852700D01*
X308133Y852700D01*
X308133Y838200D01*
X301467Y838200D01*
G37*
G54D17*
G36*
X91917Y660400D02*
X91917Y674900D01*
X98583Y674900D01*
X98583Y660400D01*
X91917Y660400D01*
G37*
G36*
X95250Y663733D02*
X109750Y663733D01*
X109750Y657067D01*
X95250Y657067D01*
X95250Y663733D01*
G37*
G36*
X98583Y660400D02*
X98583Y645900D01*
X91917Y645900D01*
X91917Y660400D01*
X98583Y660400D01*
G37*
G36*
X95250Y657067D02*
X80750Y657067D01*
X80750Y663733D01*
X95250Y663733D01*
X95250Y657067D01*
G37*
G54D17*
G36*
X57150Y803428D02*
X71650Y803428D01*
X71650Y796762D01*
X57150Y796762D01*
X57150Y803428D01*
G37*
G36*
X60483Y800095D02*
X60483Y785595D01*
X53817Y785595D01*
X53817Y800095D01*
X60483Y800095D01*
G37*
G36*
X57150Y796762D02*
X42650Y796762D01*
X42650Y803428D01*
X57150Y803428D01*
X57150Y796762D01*
G37*
G54D17*
G36*
X603250Y803428D02*
X617750Y803428D01*
X617750Y796762D01*
X603250Y796762D01*
X603250Y803428D01*
G37*
G36*
X606583Y800095D02*
X606583Y785595D01*
X599917Y785595D01*
X599917Y800095D01*
X606583Y800095D01*
G37*
G36*
X603250Y796762D02*
X588750Y796762D01*
X588750Y803428D01*
X603250Y803428D01*
X603250Y796762D01*
G37*
G54D17*
G36*
X314167Y800100D02*
X314167Y814600D01*
X320833Y814600D01*
X320833Y800100D01*
X314167Y800100D01*
G37*
G36*
X320833Y800100D02*
X320833Y785600D01*
X314167Y785600D01*
X314167Y800100D01*
X320833Y800100D01*
G37*
X444500Y869950D02*
G54D18*
D03*
X603250Y869950D02*
G54D18*
D03*
X444500Y755650D02*
G54D18*
D03*
X603250Y755650D02*
G54D18*
D03*
X215900Y869950D02*
G54D18*
D03*
X57150Y869950D02*
G54D18*
D03*
X215900Y755650D02*
G54D18*
D03*
X57150Y755650D02*
G54D18*
D03*
G36*
X54850Y633250D02*
X84850Y633250D01*
X84850Y573250D01*
X54850Y573250D01*
X54850Y633250D01*
G37*
G36*
X575550Y633250D02*
X605550Y633250D01*
X605550Y573250D01*
X575550Y573250D01*
X575550Y633250D01*
G37*
X450850Y939800D02*
G54D19*
D03*
X476250Y939800D02*
G54D19*
D03*
X501650Y939800D02*
G54D19*
D03*
X527050Y939800D02*
G54D19*
D03*
X95250Y939800D02*
G54D19*
D03*
X120650Y939800D02*
G54D19*
D03*
X146050Y939800D02*
G54D19*
D03*
X171450Y939800D02*
G54D19*
D03*
X196850Y939800D02*
G54D19*
D03*
X222250Y939800D02*
G54D19*
D03*
X133350Y787400D02*
G54D19*
D03*
X184150Y787400D02*
G54D19*
D03*
X393700Y615950D02*
G54D20*
D03*
X368300Y590550D02*
G54D20*
D03*
X419100Y590550D02*
G54D20*
D03*
X273050Y628650D02*
G54D19*
D03*
X323850Y628650D02*
G54D19*
D03*
X273050Y565150D02*
G54D19*
D03*
X323850Y565150D02*
G54D19*
D03*
X323850Y723900D02*
G54D21*
D03*
X298450Y723900D02*
G54D21*
D03*
X273050Y723900D02*
G54D21*
D03*
X476250Y571500D02*
G54D21*
D03*
X501650Y571500D02*
G54D21*
D03*
X527050Y571500D02*
G54D21*
D03*
X552450Y571500D02*
G54D21*
D03*
X476250Y647700D02*
G54D21*
D03*
X501650Y647700D02*
G54D21*
D03*
X527050Y647700D02*
G54D21*
D03*
X552450Y647700D02*
G54D21*
D03*
X57150Y755650D02*
G54D18*
D03*
X215900Y755650D02*
G54D18*
D03*
X444500Y755650D02*
G54D18*
D03*
X603250Y755650D02*
G54D18*
D03*
X552455Y571500D02*
G54D19*
D03*
X450850Y939800D02*
G54D19*
D03*
X196850Y939800D02*
G54D19*
D03*
X368300Y590550D02*
G54D19*
D03*
X323850Y723900D02*
G54D22*
D03*
X273050Y628650D02*
G54D19*
D03*
X273050Y565150D02*
G54D19*
D03*
G54D23*
X273050Y723900D02*
X298450Y723900D01*
X190500Y628650D02*
G54D19*
D03*
X241300Y628650D02*
G54D19*
D03*
X190500Y565150D02*
G54D19*
D03*
X241300Y565150D02*
G54D19*
D03*
X190500Y628650D02*
G54D19*
D03*
X190500Y565150D02*
G54D19*
D03*
X107950Y628650D02*
G54D19*
D03*
X158750Y628650D02*
G54D19*
D03*
X107950Y565150D02*
G54D19*
D03*
X158750Y565150D02*
G54D19*
D03*
X107950Y628650D02*
G54D19*
D03*
X107950Y565150D02*
G54D19*
D03*
X330200Y838200D02*
G54D19*
D03*
X304800Y838200D02*
G54D19*
D03*
X279400Y838200D02*
G54D19*
D03*
X330200Y762000D02*
G54D19*
D03*
X304800Y762000D02*
G54D19*
D03*
X279400Y762000D02*
G54D19*
D03*
X304800Y838200D02*
G54D19*
D03*
X95250Y692150D02*
G54D19*
D03*
X95250Y660400D02*
G54D19*
D03*
X57150Y825500D02*
G54D19*
D03*
X57150Y800095D02*
G54D19*
D03*
X603250Y825500D02*
G54D19*
D03*
X603250Y800095D02*
G54D19*
D03*
G54D23*
X444500Y869950D02*
X603250Y869950D01*
G54D23*
X279400Y838200D02*
X279400Y914400D01*
X292100Y800100D02*
G54D19*
D03*
X317500Y800100D02*
G54D19*
D03*
G54D23*
X279400Y838200D02*
X279400Y812800D01*
X292100Y800100D01*
X285750Y869950D02*
G54D24*
D03*
X304750Y869950D02*
G54D24*
D03*
G54D23*
X304800Y838200D02*
X304800Y869900D01*
X304750Y869950D01*
G54D23*
X171450Y939800D02*
X171450Y952500D01*
X184150Y965200D01*
X488950Y965200D01*
X501650Y952500D01*
X501650Y939800D01*
G54D23*
X476250Y939800D02*
X476250Y927100D01*
X463550Y914400D01*
X234950Y914400D01*
X222250Y927100D01*
X222250Y939800D01*
G54D23*
X330200Y838200D02*
X368300Y800100D01*
X368300Y692150D01*
G54D23*
X95250Y692150D02*
X558800Y692150D01*
X590550Y660400D01*
X590550Y603250D01*
G54D23*
X527050Y647700D02*
X527050Y654050D01*
X508000Y673100D01*
X342900Y673100D01*
X323850Y654050D01*
X323850Y628650D01*
G54D23*
X393700Y615950D02*
X476250Y615950D01*
X501650Y590550D01*
X501650Y571500D01*
G54D23*
X476250Y571500D02*
X476250Y546100D01*
X463550Y533400D01*
X171450Y533400D01*
X158750Y546100D01*
X158750Y565150D01*
G54D23*
X69850Y603250D02*
X69850Y698500D01*
X95250Y723900D01*
X273050Y723900D01*
M02*
