%FSLAX34Y34*%
%MOMM*%
%LNSOLDERMASK_TOP*%
G71*
G01*
%ADD10C, 4.60*%
%ADD11C, 2.60*%
%ADD12C, 2.40*%
%ADD13C, 2.20*%
%ADD14R, 2.00X3.20*%
%ADD15C, 2.60*%
%ADD16R, 2.20X3.20*%
%ADD17R, 3.20X2.20*%
%ADD18R, 1.50X1.80*%
%LPD*%
X444500Y869950D02*
G54D10*
D03*
X603250Y869950D02*
G54D10*
D03*
X444500Y755650D02*
G54D10*
D03*
X603250Y755650D02*
G54D10*
D03*
X215900Y869950D02*
G54D10*
D03*
X57150Y869950D02*
G54D10*
D03*
X215900Y755650D02*
G54D10*
D03*
X57150Y755650D02*
G54D10*
D03*
G36*
X51850Y636250D02*
X87850Y636250D01*
X87850Y570250D01*
X51850Y570250D01*
X51850Y636250D01*
G37*
G36*
X572550Y636250D02*
X608550Y636250D01*
X608550Y570250D01*
X572550Y570250D01*
X572550Y636250D01*
G37*
X450850Y939800D02*
G54D11*
D03*
X476250Y939800D02*
G54D11*
D03*
X501650Y939800D02*
G54D11*
D03*
X527050Y939800D02*
G54D11*
D03*
X95250Y939800D02*
G54D11*
D03*
X120650Y939800D02*
G54D11*
D03*
X146050Y939800D02*
G54D11*
D03*
X171450Y939800D02*
G54D11*
D03*
X196850Y939800D02*
G54D11*
D03*
X222250Y939800D02*
G54D11*
D03*
X133350Y787400D02*
G54D11*
D03*
X184150Y787400D02*
G54D11*
D03*
X393700Y615950D02*
G54D12*
D03*
X368300Y590550D02*
G54D12*
D03*
X419100Y590550D02*
G54D12*
D03*
X273050Y628650D02*
G54D11*
D03*
X323850Y628650D02*
G54D11*
D03*
X273050Y565150D02*
G54D11*
D03*
X323850Y565150D02*
G54D11*
D03*
X323850Y723900D02*
G54D13*
D03*
X298450Y723900D02*
G54D13*
D03*
X273050Y723900D02*
G54D13*
D03*
X476250Y571500D02*
G54D13*
D03*
X501650Y571500D02*
G54D13*
D03*
X527050Y571500D02*
G54D13*
D03*
X552450Y571500D02*
G54D13*
D03*
X476250Y647700D02*
G54D13*
D03*
X501650Y647700D02*
G54D13*
D03*
X527050Y647700D02*
G54D13*
D03*
X552450Y647700D02*
G54D13*
D03*
X476250Y561975D02*
G54D14*
D03*
X501650Y561975D02*
G54D14*
D03*
X527050Y561975D02*
G54D14*
D03*
X552450Y561975D02*
G54D14*
D03*
X476250Y657225D02*
G54D14*
D03*
X501650Y657225D02*
G54D14*
D03*
X527050Y657225D02*
G54D14*
D03*
X552450Y657225D02*
G54D14*
D03*
X57150Y755650D02*
G54D10*
D03*
X215900Y755650D02*
G54D10*
D03*
X444500Y755650D02*
G54D10*
D03*
X603250Y755650D02*
G54D10*
D03*
X552455Y571500D02*
G54D11*
D03*
X450850Y939800D02*
G54D11*
D03*
X196850Y939800D02*
G54D11*
D03*
X368300Y590550D02*
G54D11*
D03*
X323850Y723900D02*
G54D15*
D03*
X273050Y628650D02*
G54D11*
D03*
X273050Y565150D02*
G54D11*
D03*
X273050Y631825D02*
G54D16*
D03*
X273050Y561975D02*
G54D16*
D03*
X323850Y561975D02*
G54D16*
D03*
X323850Y631825D02*
G54D16*
D03*
X393750Y631875D02*
G54D16*
D03*
X352475Y590600D02*
G54D17*
D03*
X435025Y590600D02*
G54D17*
D03*
X190500Y628650D02*
G54D11*
D03*
X241300Y628650D02*
G54D11*
D03*
X190500Y565150D02*
G54D11*
D03*
X241300Y565150D02*
G54D11*
D03*
X190500Y628650D02*
G54D11*
D03*
X190500Y565150D02*
G54D11*
D03*
X190500Y631825D02*
G54D16*
D03*
X190500Y561975D02*
G54D16*
D03*
X241300Y561975D02*
G54D16*
D03*
X241300Y631825D02*
G54D16*
D03*
X107950Y628650D02*
G54D11*
D03*
X158750Y628650D02*
G54D11*
D03*
X107950Y565150D02*
G54D11*
D03*
X158750Y565150D02*
G54D11*
D03*
X107950Y628650D02*
G54D11*
D03*
X107950Y565150D02*
G54D11*
D03*
X107950Y631825D02*
G54D16*
D03*
X107950Y561975D02*
G54D16*
D03*
X158750Y561975D02*
G54D16*
D03*
X158750Y631825D02*
G54D16*
D03*
X330200Y838200D02*
G54D11*
D03*
X304800Y838200D02*
G54D11*
D03*
X279400Y838200D02*
G54D11*
D03*
X330200Y762000D02*
G54D11*
D03*
X304800Y762000D02*
G54D11*
D03*
X279400Y762000D02*
G54D11*
D03*
X304800Y838200D02*
G54D11*
D03*
X95250Y692150D02*
G54D11*
D03*
X95250Y660400D02*
G54D11*
D03*
X57150Y825500D02*
G54D11*
D03*
X57150Y800095D02*
G54D11*
D03*
X603250Y825500D02*
G54D11*
D03*
X603250Y800095D02*
G54D11*
D03*
X292100Y800100D02*
G54D11*
D03*
X317500Y800100D02*
G54D11*
D03*
X260350Y666750D02*
G54D18*
D03*
X241350Y666750D02*
G54D18*
D03*
X342900Y666750D02*
G54D18*
D03*
X323900Y666750D02*
G54D18*
D03*
M02*
