%FSLAX34Y34*%
%MOMM*%
%LNCOPPER_BOTTOM*%
G71*
G01*
%ADD10C, 0.10*%
%ADD11C, 0.11*%
%ADD12C, 0.21*%
%ADD13C, 0.15*%
%ADD14C, 0.00*%
%ADD15C, 0.22*%
%ADD16C, 4.20*%
%LPD*%
G54D10*
X349250Y958850D02*
X349250Y920750D01*
G54D10*
X628650Y958850D02*
X628650Y920750D01*
G54D10*
X349250Y958850D02*
X628650Y958850D01*
G54D10*
X349250Y958850D02*
X628650Y958850D01*
X628650Y685800D01*
X349250Y685800D01*
X349250Y958850D01*
G54D11*
X448944Y918083D02*
X448944Y915417D01*
X446167Y915417D01*
X445056Y916083D01*
X444500Y917417D01*
X444500Y918750D01*
X445056Y920083D01*
X446167Y920750D01*
X451722Y920750D01*
X452833Y920083D01*
X453389Y918750D01*
X453389Y917417D01*
X452833Y916083D01*
X451722Y915417D01*
G54D11*
X444500Y912973D02*
X453389Y912973D01*
X444500Y907640D01*
X453389Y907640D01*
G54D11*
X444500Y905196D02*
X453389Y905196D01*
X453389Y901863D01*
X452833Y900529D01*
X451722Y899863D01*
X446167Y899863D01*
X445056Y900529D01*
X444500Y901863D01*
X444500Y905196D01*
G54D11*
X478789Y920750D02*
X469900Y917417D01*
X478789Y914083D01*
G54D11*
X471567Y906306D02*
X470456Y906972D01*
X469900Y908306D01*
X469900Y909639D01*
X470456Y910972D01*
X471567Y911639D01*
X477122Y911639D01*
X478233Y910972D01*
X478789Y909639D01*
X478789Y908306D01*
X478233Y906972D01*
X477122Y906306D01*
G54D11*
X471567Y898529D02*
X470456Y899195D01*
X469900Y900529D01*
X469900Y901862D01*
X470456Y903195D01*
X471567Y903862D01*
X477122Y903862D01*
X478233Y903195D01*
X478789Y901862D01*
X478789Y900529D01*
X478233Y899195D01*
X477122Y898529D01*
G54D11*
X496967Y920750D02*
X495856Y920083D01*
X495300Y918750D01*
X495300Y917417D01*
X495856Y916083D01*
X496967Y915417D01*
X498078Y915417D01*
X499189Y916083D01*
X499744Y917417D01*
X499744Y918750D01*
X500300Y920083D01*
X501411Y920750D01*
X502522Y920750D01*
X503633Y920083D01*
X504189Y918750D01*
X504189Y917417D01*
X503633Y916083D01*
X502522Y915417D01*
G54D11*
X496967Y907640D02*
X495856Y908306D01*
X495300Y909640D01*
X495300Y910973D01*
X495856Y912306D01*
X496967Y912973D01*
X502522Y912973D01*
X503633Y912306D01*
X504189Y910973D01*
X504189Y909640D01*
X503633Y908306D01*
X502522Y907640D01*
G54D11*
X504189Y905196D02*
X495300Y905196D01*
X495300Y900529D01*
G54D11*
X522367Y920750D02*
X521256Y920083D01*
X520700Y918750D01*
X520700Y917417D01*
X521256Y916083D01*
X522367Y915417D01*
X523478Y915417D01*
X524589Y916083D01*
X525144Y917417D01*
X525144Y918750D01*
X525700Y920083D01*
X526811Y920750D01*
X527922Y920750D01*
X529033Y920083D01*
X529589Y918750D01*
X529589Y917417D01*
X529033Y916083D01*
X527922Y915417D01*
G54D11*
X520700Y912973D02*
X529589Y912973D01*
X529589Y909640D01*
X529033Y908306D01*
X527922Y907640D01*
X522367Y907640D01*
X521256Y908306D01*
X520700Y909640D01*
X520700Y912973D01*
G54D11*
X520700Y905196D02*
X529589Y901863D01*
X520700Y898529D01*
G54D11*
X524033Y903863D02*
X524033Y899863D01*
G54D12*
X348750Y985350D02*
X348750Y985350D01*
G54D12*
X348750Y965850D02*
X348750Y965850D01*
G54D11*
X97789Y927100D02*
X88900Y923767D01*
X97789Y920433D01*
G54D11*
X92789Y917989D02*
X92789Y912656D01*
G54D11*
X95011Y915322D02*
X90567Y915322D01*
G54D11*
X123189Y927100D02*
X114300Y923767D01*
X123189Y920433D01*
G54D11*
X118189Y917989D02*
X118189Y912656D01*
G54D11*
X141367Y927100D02*
X140256Y926433D01*
X139700Y925100D01*
X139700Y923767D01*
X140256Y922433D01*
X141367Y921767D01*
X142478Y921767D01*
X143589Y922433D01*
X144144Y923767D01*
X144144Y925100D01*
X144700Y926433D01*
X145811Y927100D01*
X146922Y927100D01*
X148033Y926433D01*
X148589Y925100D01*
X148589Y923767D01*
X148033Y922433D01*
X146922Y921767D01*
G54D11*
X139700Y919323D02*
X148589Y919323D01*
X148589Y915990D01*
X148033Y914656D01*
X146922Y913990D01*
X141367Y913990D01*
X140256Y914656D01*
X139700Y915990D01*
X139700Y919323D01*
G54D11*
X139700Y911546D02*
X148589Y908213D01*
X139700Y904879D01*
G54D11*
X143033Y910213D02*
X143033Y906213D01*
G54D11*
X166767Y927100D02*
X165656Y926433D01*
X165100Y925100D01*
X165100Y923767D01*
X165656Y922433D01*
X166767Y921767D01*
X167878Y921767D01*
X168989Y922433D01*
X169544Y923767D01*
X169544Y925100D01*
X170100Y926433D01*
X171211Y927100D01*
X172322Y927100D01*
X173433Y926433D01*
X173989Y925100D01*
X173989Y923767D01*
X173433Y922433D01*
X172322Y921767D01*
G54D11*
X166767Y913990D02*
X165656Y914656D01*
X165100Y915990D01*
X165100Y917323D01*
X165656Y918656D01*
X166767Y919323D01*
X172322Y919323D01*
X173433Y918656D01*
X173989Y917323D01*
X173989Y915990D01*
X173433Y914656D01*
X172322Y913990D01*
G54D11*
X173989Y911546D02*
X165100Y911546D01*
X165100Y906879D01*
G54D11*
X194944Y924433D02*
X194944Y921767D01*
X192167Y921767D01*
X191056Y922433D01*
X190500Y923767D01*
X190500Y925100D01*
X191056Y926433D01*
X192167Y927100D01*
X197722Y927100D01*
X198833Y926433D01*
X199389Y925100D01*
X199389Y923767D01*
X198833Y922433D01*
X197722Y921767D01*
G54D11*
X190500Y919323D02*
X199389Y919323D01*
X190500Y913990D01*
X199389Y913990D01*
G54D11*
X190500Y911546D02*
X199389Y911546D01*
X199389Y908213D01*
X198833Y906879D01*
X197722Y906213D01*
X192167Y906213D01*
X191056Y906879D01*
X190500Y908213D01*
X190500Y911546D01*
G54D11*
X224789Y927100D02*
X215900Y923767D01*
X224789Y920433D01*
G54D11*
X217567Y912656D02*
X216456Y913322D01*
X215900Y914656D01*
X215900Y915989D01*
X216456Y917322D01*
X217567Y917989D01*
X223122Y917989D01*
X224233Y917322D01*
X224789Y915989D01*
X224789Y914656D01*
X224233Y913322D01*
X223122Y912656D01*
G54D11*
X217567Y904879D02*
X216456Y905545D01*
X215900Y906879D01*
X215900Y908212D01*
X216456Y909545D01*
X217567Y910212D01*
X223122Y910212D01*
X224233Y909545D01*
X224789Y908212D01*
X224789Y906879D01*
X224233Y905545D01*
X223122Y904879D01*
G54D10*
X57150Y958850D02*
X260350Y958850D01*
X260350Y749300D01*
X57150Y749300D01*
X57150Y958850D01*
G54D11*
X127000Y815339D02*
X130333Y806450D01*
X133667Y815339D01*
G54D11*
X136111Y810339D02*
X141444Y810339D01*
G54D11*
X138778Y812561D02*
X138778Y808117D01*
G54D11*
X177800Y815339D02*
X181133Y806450D01*
X184467Y815339D01*
G54D11*
X186911Y810339D02*
X192244Y810339D01*
G54D12*
X267350Y946350D02*
X267350Y946350D01*
G54D12*
X267350Y926850D02*
X267350Y926850D01*
G54D13*
X360362Y628650D02*
X360362Y561975D01*
X427038Y561975D01*
X427038Y628650D01*
X360362Y628650D01*
G54D12*
X359300Y655400D02*
X359300Y655400D01*
G54D12*
X359300Y635900D02*
X359300Y635900D01*
G54D10*
X273050Y615950D02*
X323850Y615950D01*
X323850Y577850D01*
X273050Y577850D01*
X273050Y615950D01*
G54D10*
X285750Y628650D02*
X292100Y628650D01*
X292100Y565150D01*
X285750Y565150D01*
G54D10*
X311150Y628650D02*
X304800Y628650D01*
X304800Y565150D01*
X311150Y565150D01*
G54D12*
X340350Y625650D02*
X340350Y625650D01*
G54D12*
X340350Y606150D02*
X340350Y606150D01*
G54D10*
X342900Y704850D02*
X254000Y704850D01*
X254000Y742950D01*
X342900Y742950D01*
X342900Y704850D01*
G54D12*
X343400Y678350D02*
X343400Y678350D01*
G54D12*
X343400Y697850D02*
X343400Y697850D01*
G54D13*
X463550Y638200D02*
X463550Y614300D01*
X473050Y614300D01*
X473050Y604900D01*
X463550Y604900D01*
X463550Y581000D01*
X565150Y581000D01*
X565150Y638200D01*
X463550Y638200D01*
G36*
X463450Y581000D02*
X463450Y593700D01*
X476250Y581000D01*
X463450Y581000D01*
G37*
G54D14*
X463450Y581000D02*
X463450Y593700D01*
X476250Y581000D01*
X463450Y581000D01*
G54D12*
X475800Y662025D02*
X475800Y662025D01*
G54D12*
X495300Y662025D02*
X495300Y662025D01*
G54D11*
X278383Y693022D02*
X278383Y687467D01*
X277717Y686356D01*
X276383Y685800D01*
X275050Y685800D01*
X273717Y686356D01*
X273050Y687467D01*
X273050Y693022D01*
X273717Y694133D01*
X275050Y694689D01*
X276383Y694689D01*
X277717Y694133D01*
X278383Y693022D01*
G54D11*
X280827Y685800D02*
X280827Y694689D01*
X285494Y694689D01*
G54D11*
X280827Y690244D02*
X285494Y690244D01*
G54D11*
X287938Y685800D02*
X287938Y694689D01*
X292605Y694689D01*
G54D11*
X287938Y690244D02*
X292605Y690244D01*
G54D11*
X295049Y689689D02*
X300382Y689689D01*
G54D11*
X308159Y693022D02*
X308159Y687467D01*
X307493Y686356D01*
X306159Y685800D01*
X304826Y685800D01*
X303493Y686356D01*
X302826Y687467D01*
X302826Y693022D01*
X303493Y694133D01*
X304826Y694689D01*
X306159Y694689D01*
X307493Y694133D01*
X308159Y693022D01*
G54D11*
X310603Y685800D02*
X310603Y694689D01*
X315936Y685800D01*
X315936Y694689D01*
G54D15*
X44450Y672622D02*
X55117Y668178D01*
G54D15*
X44450Y663733D02*
X55117Y668178D01*
G54D15*
X60006Y660400D02*
X60006Y678178D01*
G54D15*
X64895Y660400D02*
X64895Y678178D01*
X75562Y660400D01*
X75562Y678178D01*
G54D15*
X575817Y674844D02*
X575817Y663733D01*
X574483Y661511D01*
X571817Y660400D01*
X569150Y660400D01*
X566483Y661511D01*
X565150Y663733D01*
X565150Y674844D01*
X566483Y677067D01*
X569150Y678178D01*
X571817Y678178D01*
X574483Y677067D01*
X575817Y674844D01*
G54D15*
X580706Y678178D02*
X580706Y663733D01*
X582039Y661511D01*
X584706Y660400D01*
X587373Y660400D01*
X590039Y661511D01*
X591373Y663733D01*
X591373Y678178D01*
G54D15*
X601595Y660400D02*
X601595Y678178D01*
G54D15*
X596262Y678178D02*
X606929Y678178D01*
G54D15*
X611818Y672622D02*
X622485Y668178D01*
G54D15*
X611818Y663733D02*
X622485Y668178D01*
G54D11*
X123317Y537844D02*
X125317Y536733D01*
X125983Y535622D01*
X125983Y533400D01*
G54D11*
X120650Y533400D02*
X120650Y542289D01*
X123983Y542289D01*
X125317Y541733D01*
X125983Y540622D01*
X125983Y539511D01*
X125317Y538400D01*
X123983Y537844D01*
X120650Y537844D01*
G54D11*
X132427Y533956D02*
X131360Y533400D01*
X130027Y533400D01*
X128694Y533956D01*
X128427Y535067D01*
X128427Y536956D01*
X129094Y538067D01*
X130427Y538400D01*
X131760Y538067D01*
X132427Y537289D01*
X132427Y536178D01*
X128427Y536178D01*
G54D11*
X134871Y533956D02*
X136204Y533400D01*
X137538Y533400D01*
X138871Y533956D01*
X138871Y535067D01*
X138204Y535622D01*
X135538Y536178D01*
X134871Y536733D01*
X134871Y537844D01*
X136204Y538400D01*
X137538Y538400D01*
X138871Y537844D01*
G54D11*
X145315Y533956D02*
X144248Y533400D01*
X142915Y533400D01*
X141582Y533956D01*
X141315Y535067D01*
X141315Y536956D01*
X141982Y538067D01*
X143315Y538400D01*
X144648Y538067D01*
X145315Y537289D01*
X145315Y536178D01*
X141315Y536178D01*
G54D11*
X149092Y542289D02*
X149092Y533956D01*
X149759Y533400D01*
X150426Y533622D01*
G54D11*
X147759Y538400D02*
X150426Y538400D01*
G54D11*
X370967Y533400D02*
X370967Y542289D01*
G54D11*
X368300Y542289D02*
X373633Y542289D01*
G54D11*
X376077Y533400D02*
X376077Y542289D01*
G54D11*
X376077Y536956D02*
X376744Y538067D01*
X378077Y538400D01*
X379410Y538067D01*
X380077Y536956D01*
X380077Y533400D01*
G54D11*
X382521Y533400D02*
X382521Y538400D01*
G54D11*
X382521Y537289D02*
X383854Y538400D01*
X385188Y538400D01*
G54D11*
X391632Y533956D02*
X390565Y533400D01*
X389232Y533400D01*
X387899Y533956D01*
X387632Y535067D01*
X387632Y536956D01*
X388299Y538067D01*
X389632Y538400D01*
X390965Y538067D01*
X391632Y537289D01*
X391632Y536178D01*
X387632Y536178D01*
G54D11*
X394076Y533956D02*
X395409Y533400D01*
X396743Y533400D01*
X398076Y533956D01*
X398076Y535067D01*
X397409Y535622D01*
X394743Y536178D01*
X394076Y536733D01*
X394076Y537844D01*
X395409Y538400D01*
X396743Y538400D01*
X398076Y537844D01*
G54D11*
X400520Y533400D02*
X400520Y542289D01*
G54D11*
X400520Y536956D02*
X401187Y538067D01*
X402520Y538400D01*
X403853Y538067D01*
X404520Y536956D01*
X404520Y533400D01*
G54D11*
X410964Y534733D02*
X410964Y536956D01*
X410297Y538067D01*
X408964Y538400D01*
X407631Y538067D01*
X406964Y536956D01*
X406964Y534733D01*
X407631Y533622D01*
X408964Y533400D01*
X410297Y533622D01*
X410964Y534733D01*
G54D11*
X413408Y533400D02*
X413408Y542289D01*
G54D11*
X419852Y533400D02*
X419852Y542289D01*
G54D11*
X419852Y536956D02*
X419185Y538067D01*
X417852Y538400D01*
X416519Y538067D01*
X415852Y536956D01*
X415852Y534733D01*
X416519Y533622D01*
X417852Y533400D01*
X419185Y533622D01*
X419852Y534733D01*
G54D10*
X190500Y615950D02*
X241300Y615950D01*
X241300Y577850D01*
X190500Y577850D01*
X190500Y615950D01*
G54D10*
X203200Y628650D02*
X209550Y628650D01*
X209550Y565150D01*
X203200Y565150D01*
G54D10*
X228600Y628650D02*
X222250Y628650D01*
X222250Y565150D01*
X228600Y565150D01*
G54D12*
X257800Y625650D02*
X257800Y625650D01*
G54D12*
X257800Y606150D02*
X257800Y606150D01*
G54D10*
X107950Y615950D02*
X158750Y615950D01*
X158750Y577850D01*
X107950Y577850D01*
X107950Y615950D01*
G54D10*
X120650Y628650D02*
X127000Y628650D01*
X127000Y565150D01*
X120650Y565150D01*
G54D10*
X146050Y628650D02*
X139700Y628650D01*
X139700Y565150D01*
X146050Y565150D01*
G54D12*
X175250Y625650D02*
X175250Y625650D01*
G54D12*
X175250Y606150D02*
X175250Y606150D01*
G54D11*
X203200Y533400D02*
X203200Y542289D01*
X207867Y542289D01*
G54D11*
X203200Y537844D02*
X207867Y537844D01*
G54D11*
X214311Y538400D02*
X214311Y533400D01*
G54D11*
X214311Y534511D02*
X213644Y533622D01*
X212311Y533400D01*
X210978Y533622D01*
X210311Y534511D01*
X210311Y538400D01*
G54D11*
X216755Y533400D02*
X216755Y538400D01*
G54D11*
X216755Y537289D02*
X217422Y538067D01*
X218755Y538400D01*
X220088Y538067D01*
X220755Y537289D01*
X220755Y533400D01*
G54D11*
X226532Y538067D02*
X225199Y538400D01*
X223866Y538067D01*
X223199Y536956D01*
X223199Y534733D01*
X223866Y533622D01*
X225199Y533400D01*
X226532Y533622D01*
G54D11*
X228976Y538956D02*
X232309Y542289D01*
X232309Y533400D01*
G54D11*
X285750Y533400D02*
X285750Y542289D01*
X290417Y542289D01*
G54D11*
X285750Y537844D02*
X290417Y537844D01*
G54D11*
X296861Y538400D02*
X296861Y533400D01*
G54D11*
X296861Y534511D02*
X296194Y533622D01*
X294861Y533400D01*
X293528Y533622D01*
X292861Y534511D01*
X292861Y538400D01*
G54D11*
X299305Y533400D02*
X299305Y538400D01*
G54D11*
X299305Y537289D02*
X299972Y538067D01*
X301305Y538400D01*
X302638Y538067D01*
X303305Y537289D01*
X303305Y533400D01*
G54D11*
X309082Y538067D02*
X307749Y538400D01*
X306416Y538067D01*
X305749Y536956D01*
X305749Y534733D01*
X306416Y533622D01*
X307749Y533400D01*
X309082Y533622D01*
G54D11*
X316859Y533400D02*
X311526Y533400D01*
X311526Y533956D01*
X312193Y535067D01*
X316193Y538400D01*
X316859Y539511D01*
X316859Y540622D01*
X316193Y541733D01*
X314859Y542289D01*
X313526Y542289D01*
X312193Y541733D01*
X311526Y540622D01*
G54D13*
X342900Y771500D02*
X342900Y795400D01*
X333400Y795400D01*
X333400Y804800D01*
X342900Y804800D01*
X342900Y828700D01*
X266700Y828700D01*
X266700Y771500D01*
X342900Y771500D01*
G36*
X343000Y828700D02*
X343000Y816000D01*
X330200Y828700D01*
X343000Y828700D01*
G37*
G54D14*
X343000Y828700D02*
X343000Y816000D01*
X330200Y828700D01*
X343000Y828700D01*
G54D12*
X369650Y846200D02*
X369650Y846200D01*
G54D12*
X350150Y846200D02*
X350150Y846200D01*
G54D11*
X328552Y782988D02*
X325885Y782987D01*
X325885Y785765D01*
X326552Y786876D01*
X327885Y787432D01*
X329218Y787432D01*
X330552Y786876D01*
X331218Y785765D01*
X331218Y780210D01*
X330552Y779098D01*
X329218Y778543D01*
X327885Y778543D01*
X326552Y779098D01*
X325885Y780210D01*
G54D11*
X301152Y787432D02*
X305818Y787432D01*
X305818Y778543D01*
X301151Y778543D01*
G54D11*
X305818Y782988D02*
X301151Y782987D01*
G54D11*
X280418Y787432D02*
X280418Y778543D01*
G54D11*
X331218Y819182D02*
X331218Y810293D01*
G54D11*
X303152Y814737D02*
X300485Y814737D01*
X300485Y817515D01*
X301152Y818626D01*
X302485Y819182D01*
X303818Y819182D01*
X305152Y818626D01*
X305818Y817515D01*
X305818Y811960D01*
X305152Y810849D01*
X303818Y810293D01*
X302485Y810293D01*
X301152Y810849D01*
X300485Y811960D01*
G54D11*
X275085Y811960D02*
X275085Y817515D01*
X275752Y818626D01*
X277085Y819182D01*
X278418Y819182D01*
X279752Y818626D01*
X280418Y817515D01*
X280418Y811960D01*
X279751Y810848D01*
X278418Y810293D01*
X277085Y810293D01*
X275752Y810849D01*
X275085Y811960D01*
X57150Y539750D02*
G54D16*
D03*
X603250Y539750D02*
G54D16*
D03*
X603250Y952500D02*
G54D16*
D03*
X57150Y952500D02*
G54D16*
D03*
G54D13*
X269850Y677750D02*
X269850Y655750D01*
X231850Y655750D01*
X231850Y677750D01*
X269850Y677750D01*
G54D12*
X270600Y648500D02*
X270600Y648500D01*
G54D13*
X352400Y677750D02*
X352400Y655750D01*
X314400Y655750D01*
X314400Y677750D01*
X352400Y677750D01*
G54D12*
X353150Y648500D02*
X353150Y648500D01*
M02*
